<?xml version="1.0" standalone="no"?><!DOCTYPE svg PUBLIC "-//W3C//DTD SVG 1.1//EN" "http://www.w3.org/Graphics/SVG/1.1/DTD/svg11.dtd"><svg class="icon" width="32px" height="32.00px" viewBox="0 0 1024 1024" version="1.1" xmlns="http://www.w3.org/2000/svg"><path fill="#8a8a8a" d="M426.976 144.816c41.088-58.688 128-58.688 169.088 0l18.624 26.608a64.8 64.8 0 0 0 64.352 26.656l32-5.648c70.544-12.448 132 49.024 119.552 119.568l-5.648 32a64.8 64.8 0 0 0 26.656 64.336l26.624 18.64c58.688 41.072 58.688 128 0 169.088l-26.624 18.624a64.8 64.8 0 0 0-26.656 64.352l5.648 32c12.464 70.544-49.008 132-119.568 119.552l-31.984-5.648a64.8 64.8 0 0 0-64.352 26.656l-18.624 26.608c-41.088 58.704-128 58.704-169.088 0l-18.624-26.608A64.8 64.8 0 0 0 344 824.96l-32 5.648c-70.56 12.448-132-49.008-119.552-119.568l5.632-31.984a64.8 64.8 0 0 0-26.656-64.352l-26.608-18.624c-58.688-41.088-58.688-128 0-169.088l26.624-18.64A64.8 64.8 0 0 0 198.08 344l-5.632-32c-12.464-70.56 49.008-132 119.552-119.568l32 5.648a64.8 64.8 0 0 0 64.352-26.656l18.624-26.608z m137.632 22.032c-25.792-36.864-80.384-36.864-106.176 0l-18.624 26.608a103.2 103.2 0 0 1-102.48 42.448l-32-5.648c-44.288-7.824-82.88 30.768-75.072 75.072l5.648 32a103.2 103.2 0 0 1-42.448 102.48l-26.608 18.624c-36.864 25.792-36.864 80.368 0 106.176l26.608 18.624a103.2 103.2 0 0 1 42.448 102.48l-5.648 32c-7.824 44.288 30.768 82.88 75.072 75.072l32-5.648a103.2 103.2 0 0 1 102.48 42.448l18.624 26.608c25.792 36.864 80.368 36.864 106.176 0l18.624-26.608a103.2 103.2 0 0 1 102.48-42.448l32 5.648c44.288 7.808 82.88-30.784 75.072-75.088l-5.648-31.984a103.2 103.2 0 0 1 42.448-102.48l26.608-18.624c36.864-25.792 36.864-80.384 0-106.176l-26.608-18.624a103.2 103.2 0 0 1-42.448-102.48l5.648-32c7.824-44.304-30.784-82.88-75.088-75.072l-31.984 5.648a103.2 103.2 0 0 1-102.48-42.448l-18.624-26.608zM393.52 368.704a40.8 40.8 0 1 0 0 81.6 40.8 40.8 0 0 0 0-81.6z m-79.2 40.8a79.2 79.2 0 1 1 158.4 0 79.2 79.2 0 0 1-158.4 0z m374.784-69.584a19.2 19.2 0 0 1 0 27.152L371.072 685.088a19.2 19.2 0 0 1-27.152-27.152l318-318a19.2 19.2 0 0 1 27.152 0z m-55.584 268.784a40.8 40.8 0 1 0 0 81.6 40.8 40.8 0 0 0 0-81.6z m-79.2 40.8a79.2 79.2 0 1 1 158.4 0 79.2 79.2 0 0 1-158.4 0z"  /></svg>