<?xml version="1.0" standalone="no"?><!DOCTYPE svg PUBLIC "-//W3C//DTD SVG 1.1//EN" "http://www.w3.org/Graphics/SVG/1.1/DTD/svg11.dtd"><svg class="icon" width="32px" height="32.00px" viewBox="0 0 1024 1024" version="1.1" xmlns="http://www.w3.org/2000/svg"><path fill="#8a8a8a" d="M221.424 160.48c0-26.48 23.68-43.68 47.232-43.68h551.312c23.568 0 47.232 17.2 47.232 43.68v606.608c0 17.856-11.408 32.56-26.704 39.36l-261.648 116.4c-15.04 6.688-31.456 5.28-44.224-1.552-12.8-6.848-23.52-20.224-23.52-37.808V799.84H268.64c-23.568 0-47.232-17.2-47.232-43.68v-148.928a19.2 19.2 0 1 1 38.4 0v148.928c0 0.544 0.208 1.6 1.632 2.848 1.472 1.28 3.952 2.432 7.2 2.432h242.432V292.32c0-17.856 11.408-32.544 26.72-39.36L757.6 155.2H268.64a10.96 10.96 0 0 0-7.184 2.432c-1.44 1.248-1.632 2.304-1.632 2.848v148.912a19.2 19.2 0 0 1-38.4 0V160.48z m607.376 15.456c0-0.688-0.32-2.368-3.248-3.936a12.112 12.112 0 0 0-10.512-0.32l-261.632 116.384c-3.488 1.552-3.92 3.712-3.92 4.272v591.152c0 0.688 0.32 2.384 3.248 3.936 2.944 1.584 6.912 1.92 10.512 0.32l261.632-116.384c3.504-1.552 3.92-3.712 3.92-4.272V175.936zM312.848 347.52a19.2 19.2 0 0 1 27.152 0.512l96.96 100.752a19.2 19.2 0 0 1 0 26.624l-96.96 100.752a19.2 19.2 0 0 1-27.68-26.624l65.68-68.24H120a19.2 19.2 0 0 1 0-38.4h258l-65.664-68.24a19.2 19.2 0 0 1 0.512-27.136z"  /></svg>