<?xml version="1.0" standalone="no"?><!DOCTYPE svg PUBLIC "-//W3C//DTD SVG 1.1//EN" "http://www.w3.org/Graphics/SVG/1.1/DTD/svg11.dtd"><svg class="icon" width="32px" height="32.00px" viewBox="0 0 1024 1024" version="1.1" xmlns="http://www.w3.org/2000/svg"><path fill="#8a8a8a" d="M297.056 197.616C196.896 266.24 131.2 381.44 131.2 512c0 210.304 170.496 380.8 380.8 380.8 146.032 0 272.864-82.208 336.752-202.864L503.904 529.408a19.2 19.2 0 0 1-8.272-7.392L297.056 197.632z m32.736-20.08l189.68 309.904L849.6 335.632C785.984 214.128 658.672 131.2 512 131.2c-66 0-128.096 16.8-182.224 46.352z m535.872 192.992l-307.936 141.584 307.248 143.04A379.728 379.728 0 0 0 892.8 512c0-49.984-9.632-97.728-27.152-141.472zM92.8 512C92.8 280.48 280.48 92.8 512 92.8c231.52 0 419.2 187.68 419.2 419.2 0 231.52-187.68 419.2-419.2 419.2C280.48 931.2 92.8 743.52 92.8 512z m115.2-19.2a19.2 19.2 0 0 1 19.2 19.2c0 48.704 12.208 94.496 33.712 134.544a19.2 19.2 0 1 1-33.824 18.16A321.856 321.856 0 0 1 188.8 512a19.2 19.2 0 0 1 19.2-19.2z m72.624 217.312a19.2 19.2 0 0 1 27.136 0.384c11.52 11.84 24.08 22.704 37.488 32.416a19.2 19.2 0 1 1-22.496 31.104 324.72 324.72 0 0 1-42.512-36.752 19.2 19.2 0 0 1 0.384-27.152z"  /></svg>