<?xml version="1.0" standalone="no"?><!DOCTYPE svg PUBLIC "-//W3C//DTD SVG 1.1//EN" "http://www.w3.org/Graphics/SVG/1.1/DTD/svg11.dtd"><svg class="icon" width="32px" height="32.00px" viewBox="0 0 1024 1024" version="1.1" xmlns="http://www.w3.org/2000/svg"><path fill="#8a8a8a" d="M466.752 132.96a71.376 71.376 0 0 1 90.496 0L924.16 433.392a19.2 19.2 0 0 1-24.32 29.712L532.912 162.688a32.96 32.96 0 0 0-41.84 0L124.16 463.088a19.2 19.2 0 1 1-24.32-29.712L466.752 132.976zM205.328 468.8a19.2 19.2 0 0 1 19.2 19.2v321.776c0 28.272 22.784 51.024 50.656 51.024H508a19.2 19.2 0 0 1 0 38.4H275.2c-49.28 0-89.072-40.128-89.072-89.424V488a19.2 19.2 0 0 1 19.2-19.2z m611.216 0a19.2 19.2 0 0 1 19.2 19.2v67.728a19.2 19.2 0 1 1-38.4 0V488a19.2 19.2 0 0 1 19.2-19.2z"  /><path fill="#8a8a8a" d="M312.8 657.216a36.704 36.704 0 0 1 36.656-36.752h96.048a36.704 36.704 0 0 1 36.672 36.752v96.56a36.704 36.704 0 0 1-36.656 36.752h-96.048a36.704 36.704 0 0 1-36.672-36.752v-96.56z m38.4 1.648v93.264h92.576v-93.28H351.2zM312.8 429.552a36.704 36.704 0 0 1 36.656-36.752h96.048a36.704 36.704 0 0 1 36.672 36.752v96.56a36.704 36.704 0 0 1-36.656 36.752h-96.048a36.704 36.704 0 0 1-36.672-36.752v-96.56z m38.4 1.648v93.264h92.576V431.2H351.2zM539.776 429.552a36.704 36.704 0 0 1 36.656-36.752h96.048a36.704 36.704 0 0 1 36.672 36.752v96.56a36.704 36.704 0 0 1-36.672 36.752h-96.048a36.704 36.704 0 0 1-36.656-36.752v-96.56z m38.4 1.648v93.264h92.576V431.2h-92.576zM859.152 629.728a19.2 19.2 0 0 1 27.12 1.44l16.8 18.688a19.2 19.2 0 0 1-28.56 25.68l-16.8-18.704a19.2 19.2 0 0 1 1.44-27.104z m-56.448 32.48a19.2 19.2 0 0 1 19.392 18.976c0.08 7.536 0.112 15.504 0.128 23.744 0.032 10.544 0.048 21.536 0.208 32.64l67.312-16.848a19.2 19.2 0 1 1 9.312 37.248l-75.36 18.88c0.288 5.248 0.656 10.432 1.088 15.52 1.552 18.192 4 34.032 7.68 46.144 3.888 12.896 8.064 17.872 10.256 19.28 4.352 2.8 7.296 2.912 9.472 2.512 2.688-0.48 6.288-2.208 10.528-6.176 8.768-8.176 15.936-21.968 18.608-33.12a19.2 19.2 0 1 1 37.344 8.96c-4.112 17.088-14.512 38.016-29.76 52.24-7.76 7.248-17.76 13.648-29.76 15.872-12.512 2.288-25.312-0.32-37.248-8-14.08-9.088-21.632-25.36-26.192-40.448-4.8-15.84-7.536-34.72-9.184-53.984a535.2 535.2 0 0 1-0.72-9.328l-21.2 5.312a19.2 19.2 0 1 1-9.312-37.248l28.896-7.248a2337.76 2337.76 0 0 1-0.384-43.168c0-7.936-0.032-15.472-0.112-22.368a19.2 19.2 0 0 1 19.008-19.408z m-77.024 12.832a19.2 19.2 0 0 1 0.112 27.152l-25.296 25.536v156.272a19.2 19.2 0 1 1-38.4 0v-117.52l-4.464 4.496a19.2 19.2 0 0 1-27.264-27.04l68.16-68.768a19.2 19.2 0 0 1 27.152-0.128z"  /></svg>