<?xml version="1.0" standalone="no"?><!DOCTYPE svg PUBLIC "-//W3C//DTD SVG 1.1//EN" "http://www.w3.org/Graphics/SVG/1.1/DTD/svg11.dtd"><svg class="icon" width="32px" height="32.00px" viewBox="0 0 1024 1024" version="1.1" xmlns="http://www.w3.org/2000/svg"><path fill="#8a8a8a" d="M466.752 128.96a71.376 71.376 0 0 1 90.496 0L924.16 429.392a19.2 19.2 0 0 1-24.32 29.712L532.912 158.688a32.976 32.976 0 0 0-41.84 0L124.16 459.088a19.2 19.2 0 1 1-24.32-29.712L466.752 128.976zM317.104 415.2a36.704 36.704 0 0 1 36.672-36.768h96.048a36.704 36.704 0 0 1 36.656 36.768v96.544a36.704 36.704 0 0 1-36.656 36.752H353.76a36.704 36.704 0 0 1-36.672-36.752V415.2z m38.4 1.632v93.28h92.576v-93.28H355.52z m-150.176 47.984a19.2 19.2 0 0 1 19.2 19.2v321.776c0 28.272 22.784 51.024 50.656 51.024H508a19.2 19.2 0 0 1 0 38.4H275.2c-49.28 0-89.072-40.128-89.072-89.424V484a19.2 19.2 0 0 1 19.2-19.2z m611.216 0a19.2 19.2 0 0 1 19.2 19.2V512a19.2 19.2 0 1 1-38.4 0v-28a19.2 19.2 0 0 1 19.2-19.2z m-101.712 107.088l-11.76 30.8a19.2 19.2 0 0 1-12.032 11.424 125.824 125.824 0 0 0-30.656 14.72 19.2 19.2 0 0 1-16.416 2.272l-31.552-10.048c-6.992 7.232-13.328 15.104-18.88 23.52l16.8 28.352a19.2 19.2 0 0 1 1.456 16.576 124.576 124.576 0 0 0-7.536 33.024 19.2 19.2 0 0 1-8.496 14.288l-27.536 18.304c1.328 10.096 3.584 19.888 6.672 29.312l32.848 4.592c5.76 0.8 10.816 4.16 13.808 9.12 5.856 9.76 13.008 18.688 21.232 26.512 4.208 4.016 6.384 9.728 5.888 15.536l-2.816 32.864c8.608 5.168 17.728 9.568 27.28 13.12l24.08-22.752a19.2 19.2 0 0 1 15.728-5.072 128.08 128.08 0 0 0 34.096 0 19.2 19.2 0 0 1 15.744 5.072l24.08 22.736c9.552-3.52 18.672-7.936 27.28-13.104l-2.816-32.864a19.2 19.2 0 0 1 5.888-15.536 126.4 126.4 0 0 0 21.232-26.496 19.2 19.2 0 0 1 13.808-9.136l32.832-4.592c3.104-9.424 5.36-19.216 6.688-29.312l-27.536-18.304a19.2 19.2 0 0 1-8.496-14.288 124.512 124.512 0 0 0-7.536-33.024 19.2 19.2 0 0 1 1.44-16.576l16.8-28.336a163.44 163.44 0 0 0-18.864-23.536l-31.552 10.048a19.2 19.2 0 0 1-16.416-2.256 125.904 125.904 0 0 0-30.656-14.736 19.2 19.2 0 0 1-12.032-11.424l-11.76-30.8a166.048 166.048 0 0 0-30.336 0z m-16.848-36.56a203.408 203.408 0 0 1 64.032 0 19.2 19.2 0 0 1 14.912 12.112l12.72 33.28c8.032 3.12 15.76 6.848 23.136 11.12l34.08-10.864a19.2 19.2 0 0 1 18.72 4.08c15.84 14.352 29.376 31.2 40 49.92a19.2 19.2 0 0 1-0.192 19.264l-18.176 30.64c2.512 8.048 4.416 16.352 5.68 24.864l29.728 19.776a19.2 19.2 0 0 1 8.528 17.216 199.52 199.52 0 0 1-14.224 62.336 19.2 19.2 0 0 1-15.136 11.792l-35.488 4.96c-4.8 7.056-10.144 13.728-15.952 19.936l3.04 35.504a19.2 19.2 0 0 1-8.16 17.392 201.12 201.12 0 0 1-57.76 27.76 19.2 19.2 0 0 1-18.624-4.448l-26.016-24.56a167.088 167.088 0 0 1-25.664 0l-26.016 24.56a19.2 19.2 0 0 1-18.64 4.448 201.12 201.12 0 0 1-57.728-27.76 19.2 19.2 0 0 1-8.16-17.392l3.04-35.504a165.024 165.024 0 0 1-15.984-19.936l-35.472-4.96a19.2 19.2 0 0 1-15.136-11.792 199.52 199.52 0 0 1-14.24-62.336 19.2 19.2 0 0 1 8.544-17.216l29.728-19.776a162.88 162.88 0 0 1 5.68-24.864l-18.176-30.64a19.2 19.2 0 0 1-0.176-19.28 201.872 201.872 0 0 1 39.984-49.92 19.2 19.2 0 0 1 18.72-4.064l34.08 10.88c7.36-4.288 15.104-8.016 23.136-11.136l12.72-33.28a19.2 19.2 0 0 1 14.912-12.112zM317.12 634.624a36.704 36.704 0 0 1 36.672-36.768h96.048a36.704 36.704 0 0 1 36.656 36.768v96.544a36.704 36.704 0 0 1-36.656 36.752H353.76a36.704 36.704 0 0 1-36.672-36.752v-96.544z m38.4 1.632v93.28h92.576v-93.28H355.52z m377.184 40.768a54.56 54.56 0 0 0-54.672 54.432 54.56 54.56 0 0 0 54.672 54.416 54.56 54.56 0 0 0 54.672-54.416 54.56 54.56 0 0 0-54.672-54.432z m-93.072 54.432c0-51.328 41.728-92.832 93.072-92.832s93.072 41.504 93.072 92.832c0 51.328-41.728 92.816-93.072 92.816-51.36 0-93.072-41.488-93.072-92.816z"  /></svg>