<?xml version="1.0" standalone="no"?><!DOCTYPE svg PUBLIC "-//W3C//DTD SVG 1.1//EN" "http://www.w3.org/Graphics/SVG/1.1/DTD/svg11.dtd"><svg class="icon" width="32px" height="32.00px" viewBox="0 0 1024 1024" version="1.1" xmlns="http://www.w3.org/2000/svg"><path fill="#8a8a8a" d="M300.352 182.08c0-44.928 36.496-81.28 81.44-81.28h264.432a81.36 81.36 0 0 1 81.424 81.28v0.208h74.128a81.36 81.36 0 0 1 81.44 81.28v222.432a19.2 19.2 0 0 1-38.416 0V263.584a42.96 42.96 0 0 0-43.024-42.88h-74.48A81.376 81.376 0 0 1 646.24 294.4H381.76a81.376 81.376 0 0 1-81.072-73.728h-74.48a42.96 42.96 0 0 0-43.024 42.88V837.92a42.96 42.96 0 0 0 43.024 42.896H516a19.2 19.2 0 1 1 0 38.4H226.224a81.36 81.36 0 0 1-81.424-81.28V263.568c0-44.944 36.48-81.28 81.424-81.28h74.128v-0.208z m81.44-42.88a42.96 42.96 0 0 0-43.04 42.88v31.04a42.96 42.96 0 0 0 43.04 42.896h264.432a42.96 42.96 0 0 0 43.024-42.88v-31.04a42.96 42.96 0 0 0-43.04-42.896H381.792z m-120.32 276.32a19.2 19.2 0 0 1 19.2-19.2h462.768a19.2 19.2 0 1 1 0 38.4H280.672a19.2 19.2 0 0 1-19.2-19.2z m0 155.232a19.2 19.2 0 0 1 19.2-19.2h427.776a19.2 19.2 0 1 1 0 38.4H280.672a19.2 19.2 0 0 1-19.2-19.2z m0.672 155.216a19.2 19.2 0 0 1 19.2-19.2H556a19.2 19.2 0 1 1 0 38.4H281.344a19.2 19.2 0 0 1-19.2-19.2z"  /><path fill="#8a8a8a" d="M865.952 610.944a12.8 12.8 0 0 0-18.096 0L662.816 796l-22.928 63.648 63.664-22.928L888.576 651.68a12.8 12.8 0 0 0 0-18.096l-22.624-22.64z m-45.248-27.152a51.2 51.2 0 0 1 72.4 0l22.624 22.624a51.2 51.2 0 0 1 0 72.416L727.68 866.896a19.2 19.2 0 0 1-7.056 4.48l-106.096 38.224a19.2 19.2 0 0 1-24.576-24.576l38.208-106.096c0.96-2.656 2.496-5.072 4.48-7.072l188.08-188.064z"  /></svg>