<?xml version="1.0" standalone="no"?><!DOCTYPE svg PUBLIC "-//W3C//DTD SVG 1.1//EN" "http://www.w3.org/Graphics/SVG/1.1/DTD/svg11.dtd"><svg class="icon" width="32px" height="32.00px" viewBox="0 0 1024 1024" version="1.1" xmlns="http://www.w3.org/2000/svg"><path fill="#8a8a8a" d="M124.8 195.84a71.04 71.04 0 0 1 71.04-71.04h202.992a71.04 71.04 0 0 1 71.04 71.04v202.992a71.04 71.04 0 0 1-71.04 71.04H195.84a71.04 71.04 0 0 1-71.024-71.04V195.84z m71.04-32.64a32.64 32.64 0 0 0-32.64 32.64v202.992a32.64 32.64 0 0 0 32.64 32.64h202.992a32.64 32.64 0 0 0 32.64-32.64V195.84a32.64 32.64 0 0 0-32.64-32.624H195.84z m358.288 32.64a71.04 71.04 0 0 1 71.04-71.04H828.16a71.04 71.04 0 0 1 71.04 71.04v202.992a71.04 71.04 0 0 1-71.04 71.04H625.168a71.04 71.04 0 0 1-71.04-71.04V195.84z m71.04-32.64a32.64 32.64 0 0 0-32.64 32.64v202.992a32.64 32.64 0 0 0 32.64 32.64H828.16a32.64 32.64 0 0 0 32.624-32.64V195.84a32.64 32.64 0 0 0-32.64-32.624H625.184zM124.8 625.168a71.04 71.04 0 0 1 71.04-71.04h202.992a71.04 71.04 0 0 1 71.04 71.04V828.16a71.04 71.04 0 0 1-71.04 71.024H195.84A71.04 71.04 0 0 1 124.8 828.16V625.184z m71.04-32.64a32.64 32.64 0 0 0-32.64 32.64V828.16a32.64 32.64 0 0 0 32.64 32.624h202.992a32.64 32.64 0 0 0 32.64-32.64V625.184a32.64 32.64 0 0 0-32.64-32.64H195.84z m362.176-7.568a19.2 19.2 0 0 1 19.2-19.2h88.16a19.2 19.2 0 0 1 19.2 19.2v91.872h74.688V584.96a19.2 19.2 0 0 1 19.2-19.2h95.84a19.2 19.2 0 0 1 0 38.4h-76.64v91.872a19.2 19.2 0 0 1-19.2 19.2h-113.088a19.2 19.2 0 0 1-19.2-19.2V604.16h-49.76v105.376a19.2 19.2 0 0 1-38.4 0V584.96z m316.272 59.296a19.2 19.2 0 0 1 19.2 19.2v53.184a19.2 19.2 0 0 1-38.4 0v-53.184a19.2 19.2 0 0 1 19.2-19.2z m-228.112 138.032a19.2 19.2 0 0 1 19.2-19.2h134.16a19.2 19.2 0 1 1 0 38.4h-114.96v55.52h170.512v-33.984a19.2 19.2 0 0 1 38.4 0v53.184a19.2 19.2 0 0 1-19.2 19.2H665.376a19.2 19.2 0 0 1-19.2-19.2v-93.92z m-68.96-3.904a19.2 19.2 0 0 1 19.2 19.2v74.752a19.2 19.2 0 1 1-38.4 0v-74.752a19.2 19.2 0 0 1 19.2-19.2z"  /></svg>