<?xml version="1.0" standalone="no"?><!DOCTYPE svg PUBLIC "-//W3C//DTD SVG 1.1//EN" "http://www.w3.org/Graphics/SVG/1.1/DTD/svg11.dtd"><svg class="icon" width="32px" height="32.00px" viewBox="0 0 1024 1024" version="1.1" xmlns="http://www.w3.org/2000/svg"><path fill="#8a8a8a" d="M116.8 235.2a86.4 86.4 0 0 1 86.4-86.4h621.6a86.4 86.4 0 0 1 86.4 86.4v364.8c0 4.976-1.92 9.76-5.392 13.344l-232 240a19.2 19.2 0 0 1-13.808 5.856H203.2a86.4 86.4 0 0 1-86.4-86.4V235.2z m86.4-48a48 48 0 0 0-48 48v537.6a48 48 0 0 0 48 48h437.6v-153.6a86.4 86.4 0 0 1 86.4-86.4h145.6V235.2a48 48 0 0 0-48-48H203.2z m643.536 432H727.2a48 48 0 0 0-48 48v125.312L846.736 619.2z"  /><path fill="#8a8a8a" d="M220.8 281.152a40.272 40.272 0 0 1 40.192-40.352h182a40.272 40.272 0 0 1 40.208 40.352v64.032a115.2 115.2 0 0 1-29.488 76.976l-13.312 14.816a115.2 115.2 0 0 1-85.712 38.224h-93.68a40.272 40.272 0 0 1-40.208-40.352v-153.696z m40.192-1.952a1.888 1.888 0 0 0-1.792 1.952v153.696c0 1.216 0.944 1.952 1.808 1.952h93.68a76.8 76.8 0 0 0 57.136-25.472l13.312-14.832a76.8 76.8 0 0 0 19.664-51.312v-64.032a1.872 1.872 0 0 0-1.808-1.952H261.008z"  /><path fill="#8a8a8a" d="M340.8 370.784a41.872 41.872 0 0 1 41.76-41.984h78.944a19.2 19.2 0 0 1 0 38.4H382.56a3.472 3.472 0 0 0-3.36 3.584v79.456a19.2 19.2 0 1 1-38.4 0v-79.456zM220.8 573.152a40.272 40.272 0 0 1 40.192-40.352h182a40.272 40.272 0 0 1 40.208 40.352v64.032a115.2 115.2 0 0 1-29.488 76.976l-13.312 14.816a115.2 115.2 0 0 1-85.712 38.224h-93.68a40.272 40.272 0 0 1-40.208-40.352v-153.696z m40.192-1.952a1.888 1.888 0 0 0-1.792 1.952v153.696c0 1.216 0.944 1.952 1.808 1.952h93.68a76.8 76.8 0 0 0 57.136-25.472l13.312-14.832a76.8 76.8 0 0 0 19.664-51.312v-64.032a1.872 1.872 0 0 0-1.808-1.952H261.008z"  /><path fill="#8a8a8a" d="M340.8 662.784a41.872 41.872 0 0 1 41.76-41.984h78.944a19.2 19.2 0 0 1 0 38.4H382.56a3.472 3.472 0 0 0-3.36 3.584v79.456a19.2 19.2 0 1 1-38.4 0v-79.456zM540.8 281.152a40.272 40.272 0 0 1 40.208-40.352h181.984a40.272 40.272 0 0 1 40.208 40.352v64.032a115.2 115.2 0 0 1-29.504 76.976l-13.296 14.816a115.2 115.2 0 0 1-85.712 38.224h-93.68a40.272 40.272 0 0 1-40.208-40.352v-153.696z m40.208-1.952a1.888 1.888 0 0 0-1.808 1.952v153.696c0 1.216 0.944 1.952 1.792 1.952h93.696a76.8 76.8 0 0 0 57.136-25.472l13.312-14.832a76.8 76.8 0 0 0 19.664-51.312v-64.032a1.872 1.872 0 0 0-1.792-1.952H580.992z"  /><path fill="#8a8a8a" d="M660.8 370.784a41.872 41.872 0 0 1 41.76-41.984h78.944a19.2 19.2 0 0 1 0 38.4H702.56a3.472 3.472 0 0 0-3.36 3.584v79.456a19.2 19.2 0 1 1-38.4 0v-79.456z"  /></svg>