<?xml version="1.0" standalone="no"?><!DOCTYPE svg PUBLIC "-//W3C//DTD SVG 1.1//EN" "http://www.w3.org/Graphics/SVG/1.1/DTD/svg11.dtd"><svg class="icon" width="32px" height="32.00px" viewBox="0 0 1024 1024" version="1.1" xmlns="http://www.w3.org/2000/svg"><path fill="#8a8a8a" d="M466.752 128.96a71.376 71.376 0 0 1 90.496 0L924.16 429.392a19.2 19.2 0 0 1-24.32 29.712L532.912 158.688a32.976 32.976 0 0 0-41.84 0L124.16 459.088a19.2 19.2 0 1 1-24.32-29.712L466.752 128.976zM205.328 464.8a19.2 19.2 0 0 1 19.2 19.2v321.776c0 28.272 22.784 51.024 50.656 51.024H508a19.2 19.2 0 0 1 0 38.4H275.2c-49.28 0-89.072-40.128-89.072-89.424V484a19.2 19.2 0 0 1 19.2-19.2z m611.216 0a19.2 19.2 0 0 1 19.2 19.2v45.28a19.2 19.2 0 1 1-38.4 0v-45.28a19.2 19.2 0 0 1 19.2-19.2z"  /><path fill="#8a8a8a" d="M312.8 645.216a36.704 36.704 0 0 1 36.656-36.752h96.048a36.704 36.704 0 0 1 36.672 36.752v96.56a36.704 36.704 0 0 1-36.656 36.752h-96.048a36.704 36.704 0 0 1-36.672-36.752v-96.56z m38.4 1.648v93.264h92.576v-93.28H351.2zM312.8 417.552a36.704 36.704 0 0 1 36.656-36.752h96.048a36.704 36.704 0 0 1 36.672 36.752v96.56a36.704 36.704 0 0 1-36.656 36.752h-96.048a36.704 36.704 0 0 1-36.672-36.752v-96.56z m38.4 1.648v93.264h92.576V419.2H351.2zM539.776 417.552a36.704 36.704 0 0 1 36.656-36.752h96.048a36.704 36.704 0 0 1 36.672 36.752v96.56a36.704 36.704 0 0 1-36.672 36.752h-96.048a36.704 36.704 0 0 1-36.656-36.752v-96.56z m38.4 1.648v93.264h92.576V419.2h-92.576zM596.8 720a19.2 19.2 0 0 1 19.2-19.2h272a19.2 19.2 0 0 1 19.2 19.2v134.112c0 23.488-19.68 41.088-42.112 41.088H638.928c-22.432 0-42.112-17.6-42.112-41.088V720z m38.4 19.2v114.912c0 0.448 0.16 1.008 0.768 1.6 0.64 0.592 1.632 1.088 2.944 1.088h226.176c1.312 0 2.304-0.48 2.944-1.088 0.608-0.592 0.768-1.152 0.768-1.6V739.2H635.2z"  /><path fill="#8a8a8a" d="M656.32 661.456c-2.56 3.968-4.72 9.888-7.152 17.552l-14.88 46.8a19.2 19.2 0 0 1-36.592-11.616l14.88-46.816c2.288-7.2 5.76-17.904 11.52-26.8 6.048-9.312 16.752-19.776 33.632-19.776h188.544c16.88 0 27.584 10.464 33.616 19.776 5.76 8.896 9.248 19.584 11.536 26.8l14.88 46.816a19.2 19.2 0 0 1-36.608 11.616l-14.88-46.8c-2.416-7.68-4.576-13.584-7.152-17.552a11.68 11.68 0 0 0-1.792-2.256H658.128a11.68 11.68 0 0 0-1.792 2.256z"  /></svg>