<?xml version="1.0" standalone="no"?><!DOCTYPE svg PUBLIC "-//W3C//DTD SVG 1.1//EN" "http://www.w3.org/Graphics/SVG/1.1/DTD/svg11.dtd"><svg class="icon" width="32px" height="32.00px" viewBox="0 0 1024 1024" version="1.1" xmlns="http://www.w3.org/2000/svg"><path fill="#8a8a8a" d="M128.8 255.296c0-47.84 38.88-86.496 86.72-86.496h592.96c47.84 0 86.72 38.672 86.72 86.496v342.96c0 47.84-38.88 86.512-86.72 86.512H531.152V820.8h209.12a19.2 19.2 0 1 1 0 38.4H290.4a19.2 19.2 0 1 1 0-38.4h202.336v-136.032H215.52c-47.84 0-86.72-38.672-86.72-86.512V255.296z m86.72-48.096a48.208 48.208 0 0 0-48.32 48.096v342.96a48.208 48.208 0 0 0 48.32 48.112h592.96c26.752 0 48.32-21.6 48.32-48.112V255.296a48.208 48.208 0 0 0-48.32-48.096H215.52z m444.48 57.6a19.2 19.2 0 0 1 17.952 12.384l92 242a19.2 19.2 0 1 1-35.904 13.632l-28.736-75.616h-90.608l-28.752 75.616a19.2 19.2 0 1 1-35.904-13.632l92-242a19.2 19.2 0 0 1 17.952-12.384z m-30.72 154h61.44l-30.72-80.768-30.72 80.768zM384 323.2a92.8 92.8 0 1 0 0 185.6 92.8 92.8 0 0 0 0-185.6zM252.8 416a131.2 131.2 0 1 1 262.4 0 131.2 131.2 0 0 1-262.4 0z"  /></svg>