<?xml version="1.0" standalone="no"?><!DOCTYPE svg PUBLIC "-//W3C//DTD SVG 1.1//EN" "http://www.w3.org/Graphics/SVG/1.1/DTD/svg11.dtd"><svg class="icon" width="32px" height="32.00px" viewBox="0 0 1024 1024" version="1.1" xmlns="http://www.w3.org/2000/svg"><path fill="#8a8a8a" d="M291.44 128a19.2 19.2 0 0 1 19.2-19.2h88.784a19.2 19.2 0 0 1 19.2 19.2c0 62.384 16.912 195.936 42.72 277.664 13.616 43.104 28.496 91.36 28.496 140.368V896a19.2 19.2 0 0 1-19.2 19.2H239.424a19.2 19.2 0 0 1-19.2-19.2V546.032c0-49.008 14.88-97.264 28.48-140.368C274.544 323.936 291.456 190.4 291.456 128z m38 19.2c-2.768 70.704-19.392 191.776-44.112 270.032-13.84 43.84-26.72 86.608-26.72 128.8V876.8h192.832V546.032c0-42.192-12.848-84.96-26.72-128.8-24.704-78.24-41.328-199.328-44.096-270.032h-51.2zM610.816 316.96a19.2 19.2 0 0 1 16.816-9.968h130.448a19.2 19.2 0 0 1 16.832 9.952c9.28 16.912 20.032 48.16 28.464 84.416 8.528 36.64 15.12 80.16 15.28 122.176 0.16 41.584-5.92 83.968-24.784 116.624-19.728 34.128-52.72 56.208-101.008 56.208-48.304 0-81.296-22.08-101.024-56.224-18.848-32.64-24.96-75.04-24.784-116.608 0.16-42.016 6.752-85.536 15.296-122.176 8.432-36.24 19.168-67.504 28.464-84.416z m28.912 28.432c-6.176 14.464-13.584 37.152-19.984 64.672-8.064 34.64-14.128 75.2-14.288 113.632-0.16 38.848 5.76 73.216 19.648 97.248 13.008 22.528 33.472 37.024 67.76 37.024 34.272 0 54.752-14.496 67.76-37.024 13.872-24.032 19.792-58.4 19.632-97.248-0.16-38.432-6.224-78.992-14.288-113.632-6.4-27.52-13.808-50.208-19.968-64.672h-106.272z"  /><path fill="#8a8a8a" d="M286.288 260.128a19.2 19.2 0 0 1 19.2-19.2h92.896a19.2 19.2 0 1 1 0 38.4h-92.896a19.2 19.2 0 0 1-19.2-19.2z m-66.08 278.72a19.2 19.2 0 0 1 19.2-19.2h111.504a19.2 19.2 0 1 1 0 38.4h-111.488a19.2 19.2 0 0 1-19.2-19.2z m140.4 117.664a19.2 19.2 0 0 1 19.2-19.2h6.192a19.2 19.2 0 1 1 0 38.4h-6.192a19.2 19.2 0 0 1-19.2-19.2z m-47.488 99.104a19.2 19.2 0 0 1 19.2-19.2h6.192a19.2 19.2 0 1 1 0 38.4h-6.192a19.2 19.2 0 0 1-19.2-19.2zM112.864 896a19.2 19.2 0 0 1 19.2-19.2h763.872a19.2 19.2 0 1 1 0 38.4H132.064a19.2 19.2 0 0 1-19.2-19.2z"  /><path fill="#8a8a8a" d="M581.504 468.64a19.2 19.2 0 0 1 19.2-19.2h185.808a19.2 19.2 0 0 1 0 38.4H600.704a19.2 19.2 0 0 1-19.2-19.2z m110.048 189.328a19.2 19.2 0 0 1 19.2 19.2V893.92a19.2 19.2 0 0 1-38.4 0V677.168a19.2 19.2 0 0 1 19.2-19.2z"  /></svg>