<?xml version="1.0" standalone="no"?><!DOCTYPE svg PUBLIC "-//W3C//DTD SVG 1.1//EN" "http://www.w3.org/Graphics/SVG/1.1/DTD/svg11.dtd"><svg class="icon" width="32px" height="32.00px" viewBox="0 0 1024 1024" version="1.1" xmlns="http://www.w3.org/2000/svg"><path fill="#8a8a8a" d="M132.8 174.064a69.296 69.296 0 0 1 69.328-69.264h423.568a69.296 69.296 0 0 1 69.328 69.264v30.88h122.848a69.296 69.296 0 0 1 69.328 69.248v575.744a69.296 69.296 0 0 1-69.328 69.264H358.32a69.296 69.296 0 0 1-69.344-69.264v-30.88h-86.848A69.296 69.296 0 0 1 132.8 749.824V174.064z m156.176 606.608V274.192a69.296 69.296 0 0 1 69.344-69.264h298.304V174.08a30.896 30.896 0 0 0-30.928-30.864H202.128c-17.104 0-30.928 13.84-30.928 30.864v575.744c0 17.024 13.824 30.864 30.928 30.864h86.848z m69.344-537.344c-17.12 0-30.944 13.84-30.944 30.88V849.92c0 17.024 13.824 30.864 30.944 30.864h459.552c17.104 0 30.928-13.84 30.928-30.864V274.192a30.896 30.896 0 0 0-30.928-30.864H358.32zM588 367.2a77.328 77.328 0 0 0-77.392 77.28 77.328 77.328 0 0 0 77.392 77.264 77.328 77.328 0 0 0 77.392-77.28 77.328 77.328 0 0 0-77.392-77.264z m-115.776 77.28c0-63.92 51.84-115.68 115.776-115.68 63.92 0 115.792 51.76 115.792 115.68a115.52 115.52 0 0 1-50.288 95.392A150.96 150.96 0 0 1 739.2 676a19.2 19.2 0 0 1-19.2 19.2H456a19.2 19.2 0 0 1-19.2-19.2 150.96 150.96 0 0 1 85.696-136.128 115.52 115.52 0 0 1-50.272-95.408z m115.776 118.88c-29.92 0-58.608 11.872-79.776 32.992a112.592 112.592 0 0 0-31.36 60.448h222.288a112.592 112.592 0 0 0-31.376-60.448 112.88 112.88 0 0 0-79.776-32.992zM416.8 792a19.2 19.2 0 0 1 19.2-19.2h132a19.2 19.2 0 1 1 0 38.4h-132a19.2 19.2 0 0 1-19.2-19.2z m224 0a19.2 19.2 0 0 1 19.2-19.2h72a19.2 19.2 0 1 1 0 38.4h-72a19.2 19.2 0 0 1-19.2-19.2z"  /></svg>