<?xml version="1.0" standalone="no"?><!DOCTYPE svg PUBLIC "-//W3C//DTD SVG 1.1//EN" "http://www.w3.org/Graphics/SVG/1.1/DTD/svg11.dtd"><svg class="icon" width="32px" height="32.00px" viewBox="0 0 1024 1024" version="1.1" xmlns="http://www.w3.org/2000/svg"><path fill="#8a8a8a" d="M281.168 179.2c-59.472 0-107.52 47.92-107.52 106.832 0 58.88 48.048 106.816 107.52 106.816a19.2 19.2 0 0 1 19.088 21.296 19.2 19.2 0 0 1-19.088 21.296 154.448 154.448 0 0 0-108.912 44.864 152.672 152.672 0 0 0-43.84 88.976h152.752a19.2 19.2 0 1 1 0 38.4H108a19.2 19.2 0 0 1-19.2-19.2c0-50.8 20.288-99.504 56.384-135.392 18.08-17.984 39.392-32.016 62.56-41.552-43.328-25.152-72.48-71.904-72.48-125.504 0-80.32 65.424-145.232 145.92-145.232a145.936 145.936 0 0 1 136.112 92.848 19.2 19.2 0 0 1-35.792 13.92 107.536 107.536 0 0 0-100.32-68.368z m457.664 0c-45.76 0-84.8 28.384-100.32 68.368a19.2 19.2 0 0 1-35.808-13.92A145.936 145.936 0 0 1 738.832 140.8c80.48 0 145.92 64.928 145.92 145.232 0 53.6-29.168 100.352-72.48 125.52a192.432 192.432 0 0 1 62.56 41.536A190.976 190.976 0 0 1 931.2 588.48a19.2 19.2 0 0 1-19.2 19.2H738.832a19.2 19.2 0 1 1 0-38.4h152.752a152.672 152.672 0 0 0-43.84-88.96 154.448 154.448 0 0 0-108.912-44.864 19.2 19.2 0 0 1-19.088-21.312 19.2 19.2 0 0 1 19.088-21.296c59.472 0 107.52-47.92 107.52-106.816 0-58.912-48.048-106.832-107.52-106.832z m-230.96 156.96c-76.96 0-139.552 62.816-139.552 140.528 0 77.712 62.592 140.512 139.552 140.512s139.552-62.8 139.552-140.512-62.592-140.512-139.552-140.512zM329.92 476.704c0-98.72 79.568-178.912 177.952-178.912 98.4 0 177.952 80.208 177.952 178.912a179.04 179.04 0 0 1-97.968 159.872 235.968 235.968 0 0 1 87.04 55.568 238.16 238.16 0 0 1 69.12 167.872 19.2 19.2 0 0 1-19.2 19.2H290.944a19.2 19.2 0 0 1-19.2-19.2c0-62.944 24.848-123.344 69.12-167.872a235.952 235.952 0 0 1 87.04-55.568 179.04 179.04 0 0 1-97.952-159.872z m177.952 184.24c-52.416 0-102.688 20.944-139.792 58.256a199.632 199.632 0 0 0-57.04 121.616h393.664a199.648 199.648 0 0 0-57.04-121.6 197.088 197.088 0 0 0-139.792-58.272z"  /></svg>