<?xml version="1.0" standalone="no"?><!DOCTYPE svg PUBLIC "-//W3C//DTD SVG 1.1//EN" "http://www.w3.org/Graphics/SVG/1.1/DTD/svg11.dtd"><svg class="icon" width="32px" height="32.00px" viewBox="0 0 1024 1024" version="1.1" xmlns="http://www.w3.org/2000/svg"><path fill="#8a8a8a" d="M238.768 167.2c-18.16 0-34.48 10.08-42.24 25.888-17.632 36.048-42.976 90.08-55.872 127.664-9.664 28.128-11.792 59.248-6.976 86.24 4.896 27.36 16.368 47.808 31.152 58.176 23.84 16.672 56.096 20.032 81.968 9.984 24.688-9.584 43.904-31.392 43.904-68.16a19.2 19.2 0 0 1 38.4 0c0 25.216 10.016 43.024 24.528 54.896 14.976 12.256 35.744 18.912 57.312 18.912 21.6 0 42.336-6.656 57.328-18.912 14.512-11.872 24.528-29.68 24.528-54.88a19.2 19.2 0 0 1 38.4 0c0 25.2 10.016 43.008 24.528 54.88 14.992 12.256 35.744 18.912 57.328 18.912 21.568 0 42.336-6.656 57.312-18.912 14.512-11.872 24.528-29.68 24.528-54.88a19.2 19.2 0 1 1 38.4 0c0 36.752 19.216 58.56 43.92 68.16 25.856 10.032 58.128 6.672 81.952-10 14.784-10.368 26.256-30.816 31.152-58.176 4.816-26.992 2.688-58.112-6.976-86.24-12.896-37.6-38.24-91.616-55.888-127.68-7.728-15.808-24.064-25.872-42.224-25.872a19.2 19.2 0 1 1 0-38.4c32.368 0 62.336 18.016 76.72 47.408 17.584 35.936 43.936 91.936 57.712 132.064 11.776 34.288 14.432 72.032 8.448 105.472-5.92 33.072-20.816 64.592-46.928 82.88-34.512 24.16-80.272 28.912-117.872 14.32-19.984-7.744-37.536-20.96-49.872-39.248a104.736 104.736 0 0 1-18.768 19.92c-22.912 18.736-52.672 27.584-81.616 27.584-28.96 0-58.72-8.848-81.632-27.584A104.64 104.64 0 0 1 512 470.784a104.576 104.576 0 0 1-19.424 20.832c-22.912 18.736-52.688 27.584-81.632 27.584-28.944 0-58.72-8.848-81.616-27.584a104.736 104.736 0 0 1-18.768-19.92c-12.32 18.288-29.888 31.504-49.872 39.248-37.6 14.592-83.36 9.84-117.872-14.336-26.112-18.272-41.024-49.792-46.928-82.864-5.984-33.44-3.328-71.184 8.448-105.472 13.76-40.128 40.128-96.128 57.712-132.064 14.384-29.392 44.352-47.408 76.72-47.408a19.2 19.2 0 0 1 0 38.4z"  /><path fill="#8a8a8a" d="M220.8 148a19.2 19.2 0 0 1 19.2-19.2h544a19.2 19.2 0 1 1 0 38.4H240a19.2 19.2 0 0 1-19.2-19.2zM358.688 229.664a19.2 19.2 0 0 1 12.672 24l-21.024 68a19.2 19.2 0 0 1-36.688-11.344l21.024-68a19.2 19.2 0 0 1 24.016-12.656z m314.624 0a19.2 19.2 0 0 1 24 12.672l21.04 68a19.2 19.2 0 0 1-36.704 11.344l-21.008-68a19.2 19.2 0 0 1 12.672-24.016z m-156.256-0.864a19.2 19.2 0 0 1 19.2 19.2v68a19.2 19.2 0 0 1-38.4 0V248a19.2 19.2 0 0 1 19.2-19.2zM172 572.8a19.2 19.2 0 0 1 19.2 19.2v212a44.8 44.8 0 0 0 44.8 44.8h552a44.8 44.8 0 0 0 44.8-44.8V592a19.2 19.2 0 0 1 38.4 0v212a83.2 83.2 0 0 1-83.2 83.2h-552a83.2 83.2 0 0 1-83.2-83.2V592a19.2 19.2 0 0 1 19.2-19.2z"  /><path fill="#8a8a8a" d="M528 867.2a19.2 19.2 0 0 0 19.2-19.2v-132a44.8 44.8 0 0 1 44.8-44.8h44a44.8 44.8 0 0 1 44.8 44.8V848a19.2 19.2 0 1 0 38.4 0v-132a83.2 83.2 0 0 0-83.2-83.2H592a83.2 83.2 0 0 0-83.2 83.2V848a19.2 19.2 0 0 0 19.2 19.2z"  /></svg>