<?xml version="1.0" standalone="no"?><!DOCTYPE svg PUBLIC "-//W3C//DTD SVG 1.1//EN" "http://www.w3.org/Graphics/SVG/1.1/DTD/svg11.dtd"><svg class="icon" width="32px" height="32.00px" viewBox="0 0 1024 1024" version="1.1" xmlns="http://www.w3.org/2000/svg"><path fill="#8a8a8a" d="M366 131.2c-104 0-194.8 105.632-194.8 244.8s90.784 244.8 194.8 244.8S560.8 515.168 560.8 376 470.016 131.2 366 131.2zM132.8 376c0-152.448 100.832-283.2 233.2-283.2S599.2 223.552 599.2 376c0 152.448-100.832 283.2-233.2 283.2S132.8 528.448 132.8 376z"  /><path fill="#8a8a8a" d="M382.88 622.816a19.2 19.2 0 0 1 14.96 8.32l48 70a19.2 19.2 0 0 1-15.84 30.064H324a19.2 19.2 0 0 1-14.784-31.456l58-70a19.2 19.2 0 0 1 15.664-6.928zM364.848 692.8h28.704l-12.992-18.96-15.712 18.96z"  /><path fill="#8a8a8a" d="M388.992 672.128a19.2 19.2 0 0 1 10.88 24.864c-4.992 12.768-11.952 46.784-0.096 75.744 8.8 21.52 17.312 42.704 17.92 66.016 0.64 24.208-7.168 48.432-25.44 77.472a19.2 19.2 0 0 1-32.496-20.448c15.712-24.96 19.92-41.744 19.552-56.032-0.4-15.184-5.888-30-15.088-52.48-16.96-41.44-7.104-86.368-0.096-104.256a19.2 19.2 0 0 1 24.864-10.88zM710 275.2c-14.368 0-28.256 2.56-41.44 7.344a19.2 19.2 0 0 1-13.12-36.096 159.408 159.408 0 0 1 54.56-9.648c108.08 0 189.2 106.608 189.2 229.2 0 122.592-81.12 229.2-189.2 229.2-50.08 0-94.928-23.424-128.096-60.368a19.2 19.2 0 0 1 28.576-25.664c27.104 30.192 62.048 47.632 99.52 47.632 79.68 0 150.8-81.44 150.8-190.8 0-109.36-71.104-190.8-150.8-190.8z"  /><path fill="#8a8a8a" d="M705.92 321.536a19.2 19.2 0 0 1 24.544-11.616c20.256 7.248 52.992 25.968 68.96 58.976a19.2 19.2 0 1 1-34.56 16.736c-9.872-20.4-32.048-34.08-47.328-39.552a19.2 19.2 0 0 1-11.616-24.544z m91.616 91.968a19.2 19.2 0 0 1 25.024 10.56c0.768 1.904 1.824 4.8 2.704 7.904 0.752 2.688 1.936 7.328 1.936 12.032a19.2 19.2 0 0 1-38.4 0.48l-0.016-0.16a41.792 41.792 0 0 0-1.792-5.808 19.2 19.2 0 0 1 10.56-25.008zM710.832 660.816a19.2 19.2 0 0 1 15.008 8.4l38.048 56a19.2 19.2 0 0 1-15.888 29.984H664a19.2 19.2 0 0 1-14.848-31.376l45.968-56a19.2 19.2 0 0 1 15.712-7.008z m-6.24 55.984h7.152l-3.232-4.768-3.92 4.768z"  /><path fill="#8a8a8a" d="M717.504 698.128a19.2 19.2 0 0 1 10.88 24.88c-3.904 9.92-9.328 36.608-0.128 59.04 7.152 17.44 14.4 35.296 14.912 55.056 0.544 20.672-6.16 41.104-21.344 65.152a19.2 19.2 0 1 1-32.48-20.512c12.608-19.952 15.712-32.928 15.44-43.632-0.304-11.616-4.496-23.088-12.048-41.488-14.336-34.944-6.032-72.576-0.112-87.632a19.2 19.2 0 0 1 24.88-10.88zM365.952 193.44a19.2 19.2 0 0 1 24.608-11.488c24.56 8.928 63.776 31.904 82.768 71.792a19.2 19.2 0 1 1-34.656 16.512c-13.008-27.312-41.792-45.136-61.232-52.208a19.2 19.2 0 0 1-11.488-24.608z m110.912 118.72a19.2 19.2 0 0 1 24.96 10.72c0.896 2.24 2.128 5.696 3.168 9.408 0.928 3.296 2.208 8.56 2.208 13.712a19.2 19.2 0 0 1-38.4 0.192l-0.112-0.752a58.288 58.288 0 0 0-2.512-8.304 19.2 19.2 0 0 1 10.688-24.96z"  /></svg>