<?xml version="1.0" standalone="no"?><!DOCTYPE svg PUBLIC "-//W3C//DTD SVG 1.1//EN" "http://www.w3.org/Graphics/SVG/1.1/DTD/svg11.dtd"><svg class="icon" width="32px" height="32.00px" viewBox="0 0 1024 1024" version="1.1" xmlns="http://www.w3.org/2000/svg"><path fill="#8a8a8a" d="M340.816 283.68c-22.784 0-44.64 9.024-60.72 25.088l-115.76 115.52A85.52 85.52 0 0 0 139.2 484.8v185.92a50.768 50.768 0 0 0 50.848 50.704h70.08a106.736 106.736 0 0 1 105.024-87.376 106.736 106.736 0 0 1 105.04 87.36h140.16a106.736 106.736 0 0 1 105.024-87.36 106.736 106.736 0 0 1 105.024 87.36h17.552a50.768 50.768 0 0 0 50.848-50.688v-122.768H538.08a54.192 54.192 0 0 1-54.224-54.144V283.68h-143.04z m-87.84-2.08a124.384 124.384 0 0 1 87.84-36.32h162.24a19.2 19.2 0 0 1 19.2 19.2v229.328c0 8.672 7.04 15.76 15.824 15.76h369.92a19.2 19.2 0 0 1 19.2 19.2v141.968c0 49.248-40 89.104-89.248 89.104h-35.024a19.2 19.2 0 0 1-19.2-19.2c0-37.616-30.56-68.176-68.352-68.176a68.272 68.272 0 0 0-68.352 68.16 19.2 19.2 0 0 1-19.2 19.2H452.72a19.2 19.2 0 0 1-19.2-19.2c0-37.6-30.56-68.16-68.368-68.16a68.272 68.272 0 0 0-68.352 68.16 19.2 19.2 0 0 1-19.2 19.2h-87.552A89.168 89.168 0 0 1 100.8 670.752v-185.92c0-32.912 13.104-64.464 36.416-87.712l115.744-115.52z"  /><path fill="#8a8a8a" d="M363.552 671.2a68.256 68.256 0 0 0-68.352 68.16c0 37.616 30.56 68.176 68.352 68.176a68.256 68.256 0 0 0 68.352-68.16c0-37.616-30.56-68.176-68.352-68.176z m-106.752 68.16c0-58.88 47.84-106.56 106.752-106.56 58.928 0 106.752 47.68 106.752 106.56 0 58.896-47.84 106.576-106.752 106.576-58.912 0-106.752-47.68-106.752-106.56zM715.552 671.2a68.256 68.256 0 0 0-68.352 68.16c0 37.616 30.56 68.176 68.352 68.176a68.256 68.256 0 0 0 68.368-68.16c0-37.616-30.56-68.176-68.368-68.176z m-106.752 68.16c0-58.88 47.84-106.56 106.752-106.56 58.928 0 106.752 47.68 106.752 106.56 0 58.896-47.84 106.576-106.752 106.576-58.912 0-106.752-47.68-106.752-106.56zM340.736 366.432a19.2 19.2 0 0 1-0.032 27.152l-71.136 70.992a19.2 19.2 0 0 1-27.136-27.184l71.152-70.976a19.2 19.2 0 0 1 27.152 0.016zM484.8 188a51.2 51.2 0 0 1 51.2-51.2h340a51.2 51.2 0 0 1 51.2 51.2v336a19.2 19.2 0 0 1-19.2 19.2H536a51.2 51.2 0 0 1-51.2-51.2v-304z m51.2-12.8a12.8 12.8 0 0 0-12.8 12.8v304a12.8 12.8 0 0 0 12.8 12.8h352.8v-316.8a12.8 12.8 0 0 0-12.8-12.8H536z"  /><path fill="#8a8a8a" d="M634 256.896a19.2 19.2 0 0 1 14.96 5.088l99.008 92.688 62.08-39.696a19.2 19.2 0 1 1 20.688 32.352l-74.64 47.728a19.2 19.2 0 0 1-23.472-2.16l-93.984-87.984-39.072 54.08a19.2 19.2 0 1 1-31.136-22.48l51.84-71.76a19.2 19.2 0 0 1 13.728-7.856z"  /></svg>