<?xml version="1.0" standalone="no"?><!DOCTYPE svg PUBLIC "-//W3C//DTD SVG 1.1//EN" "http://www.w3.org/Graphics/SVG/1.1/DTD/svg11.dtd"><svg class="icon" width="32px" height="32.00px" viewBox="0 0 1024 1024" version="1.1" xmlns="http://www.w3.org/2000/svg"><path fill="#8a8a8a" d="M466.752 132.96a71.376 71.376 0 0 1 90.496 0L924.16 433.392a19.2 19.2 0 0 1-24.32 29.712L532.912 162.688a32.96 32.96 0 0 0-41.84 0L124.16 463.088a19.2 19.2 0 1 1-24.32-29.712L466.752 132.976zM205.328 468.8a19.2 19.2 0 0 1 19.2 19.2v321.776c0 28.272 22.784 51.024 50.656 51.024H508a19.2 19.2 0 0 1 0 38.4H275.2c-49.28 0-89.072-40.128-89.072-89.424V488a19.2 19.2 0 0 1 19.2-19.2z m611.216 0a19.2 19.2 0 0 1 19.2 19.2v67.728a19.2 19.2 0 1 1-38.4 0V488a19.2 19.2 0 0 1 19.2-19.2z"  /><path fill="#8a8a8a" d="M316.8 419.184A36.704 36.704 0 0 1 353.44 382.4h216.048a36.704 36.704 0 0 1 36.672 36.768v96.544a36.704 36.704 0 0 1-36.672 36.752H353.456a36.704 36.704 0 0 1-36.656-36.752V419.2z m38.4 1.632v93.28h212.576V420.8H355.2zM372.8 690.32a37.44 37.44 0 0 1 37.328-37.52h99.744a37.44 37.44 0 0 1 37.328 37.52v67.36a37.44 37.44 0 0 1-37.328 37.52h-99.744a37.44 37.44 0 0 1-37.328-37.52v-67.36z m38.4 0.88v65.6h97.6v-65.6h-97.6z"  /><path fill="#8a8a8a" d="M460 532.8a19.2 19.2 0 0 1 19.2 19.2v112a19.2 19.2 0 1 1-38.4 0v-112a19.2 19.2 0 0 1 19.2-19.2zM859.152 629.728a19.2 19.2 0 0 1 27.12 1.44l16.8 18.688a19.2 19.2 0 1 1-28.56 25.68l-16.8-18.704a19.2 19.2 0 0 1 1.44-27.104z m-56.448 32.48a19.2 19.2 0 0 1 19.392 18.976c0.08 7.536 0.096 15.504 0.128 23.744 0.032 10.544 0.048 21.536 0.208 32.64l67.296-16.848a19.2 19.2 0 1 1 9.328 37.248l-75.36 18.88a544 544 0 0 0 1.088 15.52c1.552 18.192 4 34.032 7.68 46.144 3.888 12.896 8.064 17.872 10.24 19.28 4.368 2.8 7.312 2.912 9.488 2.512 2.672-0.48 6.288-2.208 10.528-6.176 8.768-8.176 15.936-21.968 18.608-33.12a19.2 19.2 0 1 1 37.344 8.96c-4.112 17.088-14.512 38.016-29.76 52.24-7.76 7.248-17.76 13.648-29.76 15.872-12.512 2.288-25.312-0.32-37.248-8-14.08-9.088-21.632-25.36-26.208-40.448-4.8-15.84-7.52-34.72-9.168-53.984a551.264 551.264 0 0 1-0.72-9.328l-21.2 5.312a19.2 19.2 0 1 1-9.312-37.248l28.896-7.248c-0.32-14.944-0.352-29.664-0.384-43.168-0.016-7.936-0.032-15.472-0.112-22.368a19.2 19.2 0 0 1 19.008-19.408z m-77.04 12.832a19.2 19.2 0 0 1 0.128 27.152l-25.296 25.536v156.272a19.2 19.2 0 1 1-38.4 0v-117.52l-4.464 4.496a19.2 19.2 0 0 1-27.264-27.04l68.16-68.768a19.2 19.2 0 0 1 27.136-0.128z"  /></svg>