<?xml version="1.0" standalone="no"?><!DOCTYPE svg PUBLIC "-//W3C//DTD SVG 1.1//EN" "http://www.w3.org/Graphics/SVG/1.1/DTD/svg11.dtd"><svg class="icon" width="32px" height="32.00px" viewBox="0 0 1024 1024" version="1.1" xmlns="http://www.w3.org/2000/svg"><path fill="#8a8a8a" d="M116.8 243.2a86.4 86.4 0 0 1 86.4-86.4h621.6a86.4 86.4 0 0 1 86.4 86.4v537.6a86.4 86.4 0 0 1-86.4 86.4H203.2a86.4 86.4 0 0 1-86.4-86.4V243.2z m86.4-48a48 48 0 0 0-48 48v537.6a48 48 0 0 0 48 48h621.6a48 48 0 0 0 48-48V243.2a48 48 0 0 0-48-48H203.2z m142.8 89.696a19.2 19.2 0 0 1 19.2 19.2v242.416a57.024 57.024 0 0 1 0 107.36v63.92a19.2 19.2 0 1 1-38.4 0v-63.904a57.024 57.024 0 0 1 0-107.36V304.08a19.2 19.2 0 0 1 19.2-19.2z m336 0a19.2 19.2 0 0 1 19.2 19.2v74.416a57.024 57.024 0 0 1 0 107.36v231.92a19.2 19.2 0 0 1-38.4 0V485.888a57.024 57.024 0 0 1 0-107.36v-74.432a19.2 19.2 0 0 1 19.2-19.2z"  /></svg>