<?xml version="1.0" standalone="no"?><!DOCTYPE svg PUBLIC "-//W3C//DTD SVG 1.1//EN" "http://www.w3.org/Graphics/SVG/1.1/DTD/svg11.dtd"><svg class="icon" width="32px" height="32.00px" viewBox="0 0 1024 1024" version="1.1" xmlns="http://www.w3.org/2000/svg"><path fill="#8a8a8a" d="M512 92.8A19.2 19.2 0 0 1 531.2 112v39.76h293.248a86.672 86.672 0 0 1 86.752 86.592V608.96a86.672 86.672 0 0 1-86.752 86.576H531.2v90.96l148.176 105.872a19.2 19.2 0 1 1-22.32 31.232L512 820l-145.056 103.632a19.2 19.2 0 1 1-22.32-31.232l148.176-105.872v-90.944H199.552A86.672 86.672 0 0 1 112.8 608.96V238.352a86.672 86.672 0 0 1 86.752-86.592H492.8V112A19.2 19.2 0 0 1 512 92.8z m-312.448 97.36a48.272 48.272 0 0 0-48.352 48.192V608.96c0 26.56 21.6 48.176 48.352 48.176h624.896a48.272 48.272 0 0 0 48.352-48.176V238.352c0-26.56-21.6-48.192-48.352-48.192H199.552z m436.8 90.304a19.2 19.2 0 0 1 19.2-19.2h101.344a19.2 19.2 0 0 1 19.2 19.2v299.04a19.2 19.2 0 0 1-19.2 19.2h-101.344a19.2 19.2 0 0 1-19.2-19.2v-299.04z m38.4 19.2v260.64h62.944v-260.64h-62.944z m-232.624 81.888a19.2 19.2 0 0 1 19.2-19.2h101.344a19.2 19.2 0 0 1 19.2 19.2v197.936a19.2 19.2 0 0 1-19.2 19.2h-101.344a19.2 19.2 0 0 1-19.2-19.2V381.552z m38.4 19.2v159.536h62.944v-159.536h-62.944z m-232.624 48.176a19.2 19.2 0 0 1 19.2-19.2h101.344a19.2 19.2 0 0 1 19.2 19.2v130.56a19.2 19.2 0 0 1-19.2 19.2h-101.328a19.2 19.2 0 0 1-19.2-19.2v-130.56z m38.4 19.2v92.16h62.944v-92.16h-62.928z"  /></svg>