<?xml version="1.0" standalone="no"?><!DOCTYPE svg PUBLIC "-//W3C//DTD SVG 1.1//EN" "http://www.w3.org/Graphics/SVG/1.1/DTD/svg11.dtd"><svg class="icon" width="32px" height="32.00px" viewBox="0 0 1024 1024" version="1.1" xmlns="http://www.w3.org/2000/svg"><path fill="#8a8a8a" d="M512 92.8A19.2 19.2 0 0 1 531.2 112v39.76h293.248a86.672 86.672 0 0 1 86.752 86.592V608.96a86.672 86.672 0 0 1-86.752 86.576H531.2v90.96l148.176 105.872a19.2 19.2 0 1 1-22.32 31.232L512 820l-145.056 103.632a19.2 19.2 0 1 1-22.32-31.232l148.176-105.872v-90.944H199.552A86.672 86.672 0 0 1 112.8 608.96V238.352a86.672 86.672 0 0 1 86.752-86.592H492.8V112A19.2 19.2 0 0 1 512 92.8z m-312.448 97.36a48.272 48.272 0 0 0-48.352 48.192V608.96c0 26.56 21.6 48.176 48.352 48.176h624.896a48.272 48.272 0 0 0 48.352-48.176V238.352c0-26.56-21.6-48.192-48.352-48.192H199.552z m554.656 130.16a19.2 19.2 0 0 1 2.816 27.008l-127.456 156.96a19.2 19.2 0 0 1-23.488 5.056l-225.552-112.928-95.776 93.536a19.2 19.2 0 1 1-26.832-27.472l105.552-103.088a19.2 19.2 0 0 1 22.016-3.44l224 112.16 117.712-144.992a19.2 19.2 0 0 1 27.008-2.8z"  /></svg>