<?xml version="1.0" standalone="no"?><!DOCTYPE svg PUBLIC "-//W3C//DTD SVG 1.1//EN" "http://www.w3.org/Graphics/SVG/1.1/DTD/svg11.dtd"><svg class="icon" width="32px" height="32.00px" viewBox="0 0 1024 1024" version="1.1" xmlns="http://www.w3.org/2000/svg"><path fill="#8a8a8a" d="M88.8 263.408c0-48 39.232-86.608 87.248-86.608h671.904c48.016 0 87.248 38.608 87.248 86.608v497.184c0 48-39.232 86.608-87.248 86.608H176.048c-48.016 0-87.248-38.608-87.248-86.608V263.408z m87.248-48.208c-27.152 0-48.848 21.76-48.848 48.208v497.184c0 26.448 21.696 48.208 48.848 48.208h671.904c27.152 0 48.848-21.76 48.848-48.208V263.408c0-26.448-21.696-48.208-48.848-48.208H176.048z m56.88 103.728a19.2 19.2 0 0 1 26.976-3.168l100.256 79.088 97.568-78.944a19.2 19.2 0 1 1 24.16 29.856l-102.384 82.816v49.152h124a19.2 19.2 0 1 1 0 38.4h-124v79.456l124.176 1.2a19.2 19.2 0 1 1-0.368 38.4l-123.808-1.2v76.048a19.2 19.2 0 0 1-38.4 0v-76.24h-126.784a19.2 19.2 0 1 1 0-38.4h126.784v-79.264h-126.784a19.2 19.2 0 1 1 0-38.4h126.784v-49.008l-104.992-82.816a19.2 19.2 0 0 1-3.184-26.976z m460.848-7.296a19.2 19.2 0 0 1 19.2 19.2v70.592h88.208a19.2 19.2 0 1 1 0 38.4H712.96v67.968a19.2 19.2 0 0 1-38.4 0v-67.968h-86.016a19.2 19.2 0 1 1 0-38.4h86.032v-70.592a19.2 19.2 0 0 1 19.2-19.2z m-120.176 360.48a19.2 19.2 0 0 1 19.2-19.2h195.616a19.2 19.2 0 1 1 0 38.4H592.8a19.2 19.2 0 0 1-19.2-19.2z"  /></svg>